<mxfile host="app.diagrams.net" modified="2020-10-01T00:50:21.472Z" agent="5.0 (Windows NT 10.0; Win64; x64) AppleWebKit/537.36 (KHTML, like Gecko) Chrome/85.0.4183.121 Safari/537.36" etag="rnHX8uS4_autz3_cZysb" version="13.7.3" type="github">
  <diagram id="YK21uThU-okaKJXyS0Il" name="Page-1">
    <mxGraphModel dx="868" dy="488" grid="1" gridSize="10" guides="1" tooltips="1" connect="1" arrows="1" fold="1" page="1" pageScale="1" pageWidth="827" pageHeight="1169" math="0" shadow="0">
      <root>
        <mxCell id="0" />
        <mxCell id="1" parent="0" />
        <mxCell id="VIH0Zc7rtt36dxy2nJ9U-1" value="0" style="ellipse;whiteSpace=wrap;html=1;aspect=fixed;fontSize=19;" vertex="1" parent="1">
          <mxGeometry x="60" y="200" width="80" height="80" as="geometry" />
        </mxCell>
        <mxCell id="VIH0Zc7rtt36dxy2nJ9U-3" value="1" style="ellipse;whiteSpace=wrap;html=1;aspect=fixed;fontSize=19;" vertex="1" parent="1">
          <mxGeometry x="230" y="200" width="80" height="80" as="geometry" />
        </mxCell>
        <mxCell id="VIH0Zc7rtt36dxy2nJ9U-4" value="2" style="ellipse;whiteSpace=wrap;html=1;aspect=fixed;fontSize=19;" vertex="1" parent="1">
          <mxGeometry x="420" y="120" width="80" height="80" as="geometry" />
        </mxCell>
        <mxCell id="VIH0Zc7rtt36dxy2nJ9U-5" value="3" style="ellipse;whiteSpace=wrap;html=1;aspect=fixed;fontSize=19;" vertex="1" parent="1">
          <mxGeometry x="620" y="200" width="80" height="80" as="geometry" />
        </mxCell>
        <mxCell id="VIH0Zc7rtt36dxy2nJ9U-6" value="4" style="ellipse;whiteSpace=wrap;html=1;aspect=fixed;fontSize=19;" vertex="1" parent="1">
          <mxGeometry x="420" y="400" width="80" height="80" as="geometry" />
        </mxCell>
        <mxCell id="VIH0Zc7rtt36dxy2nJ9U-7" value="5" style="ellipse;whiteSpace=wrap;html=1;aspect=fixed;fontSize=19;" vertex="1" parent="1">
          <mxGeometry x="420" y="260" width="80" height="80" as="geometry" />
        </mxCell>
        <mxCell id="VIH0Zc7rtt36dxy2nJ9U-8" value="&amp;nbsp;[0-9]&amp;nbsp;" style="endArrow=classic;html=1;fontSize=19;exitX=1;exitY=0.5;exitDx=0;exitDy=0;entryX=0;entryY=0.5;entryDx=0;entryDy=0;" edge="1" parent="1" source="VIH0Zc7rtt36dxy2nJ9U-1" target="VIH0Zc7rtt36dxy2nJ9U-3">
          <mxGeometry width="50" height="50" relative="1" as="geometry">
            <mxPoint x="390" y="280" as="sourcePoint" />
            <mxPoint x="440" y="230" as="targetPoint" />
          </mxGeometry>
        </mxCell>
        <mxCell id="VIH0Zc7rtt36dxy2nJ9U-9" value="&amp;nbsp;[0-9]&amp;nbsp;" style="endArrow=classic;html=1;fontSize=19;exitX=1;exitY=0;exitDx=0;exitDy=0;entryX=0;entryY=0.5;entryDx=0;entryDy=0;" edge="1" parent="1" source="VIH0Zc7rtt36dxy2nJ9U-3" target="VIH0Zc7rtt36dxy2nJ9U-4">
          <mxGeometry width="50" height="50" relative="1" as="geometry">
            <mxPoint x="330" y="230" as="sourcePoint" />
            <mxPoint x="420" y="230" as="targetPoint" />
          </mxGeometry>
        </mxCell>
        <mxCell id="VIH0Zc7rtt36dxy2nJ9U-10" value="&amp;nbsp;F&amp;nbsp;" style="endArrow=classic;html=1;fontSize=19;exitX=1;exitY=0.5;exitDx=0;exitDy=0;entryX=0;entryY=0.5;entryDx=0;entryDy=0;" edge="1" parent="1" source="VIH0Zc7rtt36dxy2nJ9U-3" target="VIH0Zc7rtt36dxy2nJ9U-5">
          <mxGeometry x="-0.5484" width="50" height="50" relative="1" as="geometry">
            <mxPoint x="340" y="230" as="sourcePoint" />
            <mxPoint x="430" y="230" as="targetPoint" />
            <mxPoint as="offset" />
          </mxGeometry>
        </mxCell>
        <mxCell id="VIH0Zc7rtt36dxy2nJ9U-11" value="&amp;nbsp;[0-9]&amp;nbsp;" style="endArrow=classic;html=1;fontSize=19;exitX=1;exitY=0;exitDx=0;exitDy=0;entryX=0;entryY=0;entryDx=0;entryDy=0;" edge="1" parent="1" source="VIH0Zc7rtt36dxy2nJ9U-4" target="VIH0Zc7rtt36dxy2nJ9U-4">
          <mxGeometry width="50" height="50" relative="1" as="geometry">
            <mxPoint x="540" y="130" as="sourcePoint" />
            <mxPoint x="630" y="130" as="targetPoint" />
            <Array as="points">
              <mxPoint x="488" y="90" />
              <mxPoint x="460" y="80" />
              <mxPoint x="432" y="90" />
            </Array>
          </mxGeometry>
        </mxCell>
        <mxCell id="VIH0Zc7rtt36dxy2nJ9U-12" value="&amp;nbsp;F&amp;nbsp;" style="endArrow=classic;html=1;fontSize=19;exitX=1;exitY=0.5;exitDx=0;exitDy=0;entryX=0;entryY=0;entryDx=0;entryDy=0;" edge="1" parent="1" source="VIH0Zc7rtt36dxy2nJ9U-4" target="VIH0Zc7rtt36dxy2nJ9U-5">
          <mxGeometry width="50" height="50" relative="1" as="geometry">
            <mxPoint x="520" y="150" as="sourcePoint" />
            <mxPoint x="610" y="150" as="targetPoint" />
          </mxGeometry>
        </mxCell>
        <mxCell id="VIH0Zc7rtt36dxy2nJ9U-13" value="&amp;nbsp;0&amp;nbsp;" style="endArrow=classic;html=1;fontSize=19;exitX=1;exitY=0.5;exitDx=0;exitDy=0;entryX=0.5;entryY=1;entryDx=0;entryDy=0;" edge="1" parent="1" source="VIH0Zc7rtt36dxy2nJ9U-6" target="VIH0Zc7rtt36dxy2nJ9U-5">
          <mxGeometry width="50" height="50" relative="1" as="geometry">
            <mxPoint x="530" y="430" as="sourcePoint" />
            <mxPoint x="620" y="430" as="targetPoint" />
          </mxGeometry>
        </mxCell>
        <mxCell id="VIH0Zc7rtt36dxy2nJ9U-14" value="&amp;nbsp;1&amp;nbsp;" style="endArrow=classic;html=1;fontSize=19;exitX=1;exitY=0.5;exitDx=0;exitDy=0;entryX=0;entryY=1;entryDx=0;entryDy=0;" edge="1" parent="1" source="VIH0Zc7rtt36dxy2nJ9U-6" target="VIH0Zc7rtt36dxy2nJ9U-5">
          <mxGeometry x="0.3861" y="2" width="50" height="50" relative="1" as="geometry">
            <mxPoint x="510" y="450" as="sourcePoint" />
            <mxPoint x="670" y="290" as="targetPoint" />
            <mxPoint as="offset" />
          </mxGeometry>
        </mxCell>
        <mxCell id="VIH0Zc7rtt36dxy2nJ9U-15" value="&amp;nbsp;.&amp;nbsp;" style="endArrow=classic;html=1;fontSize=19;exitX=1;exitY=1;exitDx=0;exitDy=0;entryX=0;entryY=0.5;entryDx=0;entryDy=0;" edge="1" parent="1" source="VIH0Zc7rtt36dxy2nJ9U-3" target="VIH0Zc7rtt36dxy2nJ9U-6">
          <mxGeometry width="50" height="50" relative="1" as="geometry">
            <mxPoint x="520" y="460" as="sourcePoint" />
            <mxPoint x="680" y="300" as="targetPoint" />
          </mxGeometry>
        </mxCell>
        <mxCell id="VIH0Zc7rtt36dxy2nJ9U-16" value="&amp;nbsp;F&amp;nbsp;" style="endArrow=classic;html=1;fontSize=19;exitX=1;exitY=0;exitDx=0;exitDy=0;entryX=1;entryY=1;entryDx=0;entryDy=0;" edge="1" parent="1" source="VIH0Zc7rtt36dxy2nJ9U-6" target="VIH0Zc7rtt36dxy2nJ9U-7">
          <mxGeometry width="50" height="50" relative="1" as="geometry">
            <mxPoint x="530" y="470" as="sourcePoint" />
            <mxPoint x="690" y="310" as="targetPoint" />
          </mxGeometry>
        </mxCell>
        <mxCell id="VIH0Zc7rtt36dxy2nJ9U-17" value="&amp;nbsp;.&amp;nbsp;" style="endArrow=classic;html=1;fontSize=19;exitX=0.5;exitY=0;exitDx=0;exitDy=0;entryX=0.5;entryY=1;entryDx=0;entryDy=0;" edge="1" parent="1" source="VIH0Zc7rtt36dxy2nJ9U-6" target="VIH0Zc7rtt36dxy2nJ9U-7">
          <mxGeometry width="50" height="50" relative="1" as="geometry">
            <mxPoint x="540" y="480" as="sourcePoint" />
            <mxPoint x="700" y="320" as="targetPoint" />
          </mxGeometry>
        </mxCell>
        <mxCell id="VIH0Zc7rtt36dxy2nJ9U-18" value="&amp;nbsp;[2-9]&amp;nbsp;" style="endArrow=classic;html=1;fontSize=19;exitX=0;exitY=0;exitDx=0;exitDy=0;entryX=0;entryY=1;entryDx=0;entryDy=0;" edge="1" parent="1" source="VIH0Zc7rtt36dxy2nJ9U-6" target="VIH0Zc7rtt36dxy2nJ9U-7">
          <mxGeometry width="50" height="50" relative="1" as="geometry">
            <mxPoint x="550" y="490" as="sourcePoint" />
            <mxPoint x="710" y="330" as="targetPoint" />
          </mxGeometry>
        </mxCell>
      </root>
    </mxGraphModel>
  </diagram>
</mxfile>
